<svg id="Layer_1" data-name="Layer 1" xmlns="http://www.w3.org/2000/svg" viewBox="0 0 209.89 40"><defs><style>.cls-1{fill:#2962ff;}.cls-2{fill:#ffd600;}.cls-3{fill:#aeea00;}</style></defs><g id="MDL_logo-stacked_horiz-full_color" data-name="MDL logo-stacked horiz-full color"><path id="MDL_wmk-2_lines" data-name="MDL wmk-2 lines" d="M77.22,1.89c-.06,0-.17,0-.31.06l-.59.11V12.8l.59.1c.14,0,.25.06.31.06l.12,0a.59.59,0,0,1,.51.64v1.21H72V13.62a.59.59,0,0,1,.51-.64l1.33-.18V5.27c0-.19,0-.37,0-.57s0-.43,0-.66l-4.46,8.39a1.12,1.12,0,0,1-.41.45,1,1,0,0,1-.57.16h-.37a1.06,1.06,0,0,1-.57-.16,1.2,1.2,0,0,1-.41-.45L62.63,4c0,.23,0,.45,0,.65s0,.41,0,.6V12.8L64,13a.59.59,0,0,1,.51.64v1.21H58.72V13.62a.59.59,0,0,1,.51-.64l.12,0,.31-.06.61-.1V2.06L59.66,2c-.14,0-.25-.06-.31-.06l-.12,0a.58.58,0,0,1-.51-.63V0h3.62l.33,0a.86.86,0,0,1,.24,0c.09,0,.13.08.19.14a1.8,1.8,0,0,1,.18.25L67.7,8.69c.12.22.21.45.31.67l.31.72.28-.72a7.32,7.32,0,0,1,.33-.69L73.31.48a1.81,1.81,0,0,1,.16-.25.49.49,0,0,1,.21-.14,1,1,0,0,1,.24,0l.31,0h3.62V1.24a.58.58,0,0,1-.51.63A.71.71,0,0,1,77.22,1.89ZM90.15,13.62v1.21H87.06a.61.61,0,0,1-.63-.48l-.19-.83c-.22.22-.45.43-.67.61a3.48,3.48,0,0,1-.74.45,6.67,6.67,0,0,1-.86.31,4.87,4.87,0,0,1-1,.1,4,4,0,0,1-1.54-.29,3.11,3.11,0,0,1-1.1-.84,3.45,3.45,0,0,1-.68-1.24A5.93,5.93,0,0,1,79.47,11V6.35l-1-.18a.6.6,0,0,1-.51-.64V4.33H82V11a2.3,2.3,0,0,0,.45,1.49,1.6,1.6,0,0,0,1.33.51A2.87,2.87,0,0,0,85,12.72a4,4,0,0,0,1.09-.8V6.35c-.86-.14-.86-.16-1-.18a.6.6,0,0,1-.52-.64V4.33h4.08V12.8l1,.18A.59.59,0,0,1,90.15,13.62Zm8.34-2.13a3.62,3.62,0,0,1-.28,1.41,3.29,3.29,0,0,1-.8,1.11,3.58,3.58,0,0,1-1.31.71,5.24,5.24,0,0,1-1.8.27A10.33,10.33,0,0,1,91,14.42v-3h1.19a.45.45,0,0,1,.47.39c0,.1.06.39.14,1.2a5.85,5.85,0,0,0,1.66.17,2.85,2.85,0,0,0,.78-.1,1.88,1.88,0,0,0,.53-.29,1.05,1.05,0,0,0,.31-.39,1.4,1.4,0,0,0,.08-.49.79.79,0,0,0-.21-.59,1.67,1.67,0,0,0-.59-.41,3.78,3.78,0,0,0-.82-.31l-1-.31a6.42,6.42,0,0,1-.94-.39,3,3,0,0,1-.84-.55,2.2,2.2,0,0,1-.57-.82A2.76,2.76,0,0,1,91,7.38a3,3,0,0,1,.25-1.23,2.79,2.79,0,0,1,.75-1,3.6,3.6,0,0,1,1.25-.7,5.41,5.41,0,0,1,1.7-.27A8.9,8.9,0,0,1,98,4.72h0v3H96.79a.45.45,0,0,1-.47-.39c0-.1-.06-.34-.14-1.14A5,5,0,0,0,95,6a2,2,0,0,0-1.16.3,1,1,0,0,0-.43.84.83.83,0,0,0,.22.57,1.64,1.64,0,0,0,.57.39,4,4,0,0,0,.82.33c.31.08.62.18.94.29a6.22,6.22,0,0,1,1,.39,2.82,2.82,0,0,1,.82.53,2.16,2.16,0,0,1,.58.75A2.58,2.58,0,0,1,98.49,11.49Zm7.5-7a3.92,3.92,0,0,1,1.43.94,4,4,0,0,1,.94,1.5,5.41,5.41,0,0,1,.35,2,3.11,3.11,0,0,1,0,.49.85.85,0,0,1-.08.29.42.42,0,0,1-.19.16.59.59,0,0,1-.28,0h-6.49a3.62,3.62,0,0,0,.88,2.38,2.67,2.67,0,0,0,2,.75,3.26,3.26,0,0,0,1-.14,4,4,0,0,0,.77-.33c.23-.12.43-.2.6-.3a.79.79,0,0,1,.47-.15.72.72,0,0,1,.29.06.58.58,0,0,1,.18.17l.74.92a4.63,4.63,0,0,1-2,1.37,8.23,8.23,0,0,1-1.17.27,7.37,7.37,0,0,1-1.14.08,5.42,5.42,0,0,1-2-.35,4.88,4.88,0,0,1-1.64-1.08,5.07,5.07,0,0,1-1.1-1.76,6.79,6.79,0,0,1-.39-2.44,5.72,5.72,0,0,1,.35-2,4.73,4.73,0,0,1,1-1.66A4.6,4.6,0,0,1,102,4.57a5.5,5.5,0,0,1,2.13-.41A5.39,5.39,0,0,1,106,4.47Zm-3.5,2.13a3.11,3.11,0,0,0-.8,1.76h4.75a3,3,0,0,0-.15-.92,2,2,0,0,0-.41-.76,1.71,1.71,0,0,0-.69-.51,2.56,2.56,0,0,0-1-.21A2.33,2.33,0,0,0,102.49,6.6Zm18.76,7v1.21h-3.09a.61.61,0,0,1-.63-.48l-.19-.83c-.22.22-.45.43-.67.61a3.48,3.48,0,0,1-.74.45,6.17,6.17,0,0,1-.86.31,4.79,4.79,0,0,1-1,.1,3.9,3.9,0,0,1-1.53-.29,3.14,3.14,0,0,1-1.11-.84,3.29,3.29,0,0,1-.67-1.24,5.56,5.56,0,0,1-.23-1.62V6.35l-1-.18a.6.6,0,0,1-.52-.64V4.33h4.08V11a2.3,2.3,0,0,0,.45,1.49,1.6,1.6,0,0,0,1.33.51,2.91,2.91,0,0,0,1.23-.28,4.13,4.13,0,0,0,1.08-.8V6.35c-.86-.14-.86-.16-1-.18a.59.59,0,0,1-.51-.64V4.33h4.07V12.8l1,.18A.59.59,0,0,1,121.25,13.62Zm18.63,0v1.21H135.8V8.15a2.31,2.31,0,0,0-.42-1.51,1.57,1.57,0,0,0-1.29-.51,2.16,2.16,0,0,0-.74.14,1.48,1.48,0,0,0-.57.37,1.82,1.82,0,0,0-.39.63,2.42,2.42,0,0,0-.15.88V12.8l.6.1.3.06.13,0a.59.59,0,0,1,.51.64v1.21h-4.07V8.15a2.33,2.33,0,0,0-.43-1.53A1.56,1.56,0,0,0,128,6.13a2,2,0,0,0-1,.26,3.32,3.32,0,0,0-.88.76V12.8l.59.1L127,13l.12,0a.59.59,0,0,1,.51.64v1.21h-5.61V13.62a.6.6,0,0,1,.51-.64l.13,0c.06,0,.16,0,.3-.06l.6-.1V6.35l-.6-.1c-.14,0-.24-.06-.3-.06l-.13,0a.61.61,0,0,1-.53-.64V4.33h3.11a.62.62,0,0,1,.64.47l.16.78a6.27,6.27,0,0,1,.57-.58,5.74,5.74,0,0,1,.66-.43,3.81,3.81,0,0,1,.74-.3,2.64,2.64,0,0,1,.86-.11,2.41,2.41,0,0,1,1.63.54,3.1,3.1,0,0,1,1,1.43,3.12,3.12,0,0,1,.62-.9,3.56,3.56,0,0,1,.8-.6,3.63,3.63,0,0,1,.94-.34,3.81,3.81,0,0,1,1-.13,4.18,4.18,0,0,1,1.54.27,3,3,0,0,1,1.14.78,3.45,3.45,0,0,1,.7,1.25,5.47,5.47,0,0,1,.24,1.69V12.8l.6.1c.14,0,.24.06.3.06l.13,0A.6.6,0,0,1,139.88,13.62Zm8.36-2.13A3.45,3.45,0,0,1,148,12.9a3,3,0,0,1-.8,1.11,3.42,3.42,0,0,1-1.31.71A5.2,5.2,0,0,1,144,15a10.26,10.26,0,0,1-3.33-.57v-3h1.19a.46.46,0,0,1,.47.39c0,.1.06.39.14,1.2a5.85,5.85,0,0,0,1.66.17,2.77,2.77,0,0,0,.77-.1,2,2,0,0,0,.54-.29.94.94,0,0,0,.3-.39,1.41,1.41,0,0,0,.09-.49.84.84,0,0,0-.21-.59,1.77,1.77,0,0,0-.59-.41,3.78,3.78,0,0,0-.82-.31l-1-.31a6,6,0,0,1-.94-.39,3,3,0,0,1-.84-.55,2.34,2.34,0,0,1-.58-.82,2.92,2.92,0,0,1-.22-1.18A3.21,3.21,0,0,1,141,6.15a2.82,2.82,0,0,1,.76-1,3.6,3.6,0,0,1,1.25-.7,5.36,5.36,0,0,1,1.7-.27,8.94,8.94,0,0,1,3.07.56h0v3h-1.17a.44.44,0,0,1-.47-.39c0-.1-.06-.34-.14-1.14A5,5,0,0,0,144.7,6a2,2,0,0,0-1.17.3,1,1,0,0,0-.43.84.79.79,0,0,0,.23.57,1.64,1.64,0,0,0,.57.39,3.8,3.8,0,0,0,.82.33c.31.08.61.18.94.29a6.22,6.22,0,0,1,1,.39,2.82,2.82,0,0,1,.82.53,2,2,0,0,1,.57.75A2.44,2.44,0,0,1,148.24,11.49Zm10.56-7-.08.54c0,.18-.19.19-.41.19h-.2c-.83,0-1.31.47-1.42,1.41l-.06.58h1.79l-.1.78h-1.77c-.23,1.93-.46,3.85-.7,5.78a1.82,1.82,0,0,1-1.92,1.77,1.85,1.85,0,0,1-.74-.13l.12-.59a.2.2,0,0,1,.21-.12h.23c.68,0,.94-.32,1-.95l.7-5.73-.67-.09c-.2,0-.27-.13-.26-.28l.05-.44h1l.07-.62A2.32,2.32,0,0,1,158,4.36,2.24,2.24,0,0,1,158.8,4.48Zm4.07,2.72a2.12,2.12,0,0,1,.86.64,2.39,2.39,0,0,1,.46,1,3.76,3.76,0,0,1,0,1.31,4.28,4.28,0,0,1-.37,1.33,3.13,3.13,0,0,1-.71,1,3,3,0,0,1-1,.66,3.66,3.66,0,0,1-1.26.22,3.13,3.13,0,0,1-1.2-.22,2.06,2.06,0,0,1-.85-.66,2.39,2.39,0,0,1-.48-1,3.87,3.87,0,0,1,0-1.33,4.36,4.36,0,0,1,.38-1.31,3.27,3.27,0,0,1,.71-1,3,3,0,0,1,1-.64A3.39,3.39,0,0,1,161.66,7,3,3,0,0,1,162.87,7.2Zm-.43,4.7a3.13,3.13,0,0,0,.66-1.72,2.66,2.66,0,0,0-.23-1.73,1.41,1.41,0,0,0-1.3-.63,2.06,2.06,0,0,0-.84.16,1.89,1.89,0,0,0-.62.47,2.06,2.06,0,0,0-.43.74,4,4,0,0,0-.25,1,3.71,3.71,0,0,0,0,1,1.54,1.54,0,0,0,.25.72,1.29,1.29,0,0,0,.52.46,1.74,1.74,0,0,0,.79.16A1.8,1.8,0,0,0,162.44,11.9Zm4.15-4.53,0,1A2.45,2.45,0,0,1,168.62,7a1.54,1.54,0,0,1,.82.21L169.2,8c0,.09-.1.16-.18.16a1,1,0,0,1-.29-.07,1.9,1.9,0,0,0-.49-.06,2,2,0,0,0-1.76,1.31L166,13.29h-1.09L165.56,8c-.38-.07-.61-.13-.69-.15s-.16-.09-.15-.22l.07-.52h1.51C166.53,7.08,166.59,7.15,166.59,7.37ZM73.19,28.91a7.84,7.84,0,0,1-.56,3,7,7,0,0,1-1.51,2.35,6.92,6.92,0,0,1-2.37,1.51,8.12,8.12,0,0,1-3,.56h-7V35.11a.59.59,0,0,1,.51-.64l.12,0c.06,0,.17,0,.31-.06l.61-.1V23.55l-.61-.11c-.14,0-.25-.06-.31-.06a.71.71,0,0,1-.12,0,.58.58,0,0,1-.51-.63V21.52h7a8.12,8.12,0,0,1,3,.55,6.94,6.94,0,0,1,2.37,1.52,6.84,6.84,0,0,1,1.51,2.33A7.81,7.81,0,0,1,73.19,28.91Zm-2.83,0A6.65,6.65,0,0,0,70,26.74a4.78,4.78,0,0,0-.93-1.64,4.1,4.1,0,0,0-1.47-1,4.83,4.83,0,0,0-1.94-.37H63V34.13H65.7a5,5,0,0,0,1.94-.37,4.12,4.12,0,0,0,1.47-1A4.64,4.64,0,0,0,70,31.1,6.81,6.81,0,0,0,70.36,28.91Zm9.13,6.2v1.21H73.87V35.11a.59.59,0,0,1,.51-.64l.12,0,.31-.06.61-.1V27.84l-.61-.1c-.15,0-.25-.06-.31-.06l-.12,0a.58.58,0,0,1-.51-.63V25.82h4.07v8.47l.61.1c.15,0,.25.06.31.06l.12,0A.59.59,0,0,1,79.49,35.11ZM78.18,23.36a1.63,1.63,0,0,1-.34.51,1.45,1.45,0,0,1-.52.35,1.64,1.64,0,0,1-.63.12,1.68,1.68,0,0,1-.63-.12,1.37,1.37,0,0,1-.5-.35,1.63,1.63,0,0,1-.34-.51,1.51,1.51,0,0,1-.13-.61,1.74,1.74,0,0,1,.13-.64,1.53,1.53,0,0,1,.84-.84,1.7,1.7,0,0,1,.63-.14,1.66,1.66,0,0,1,.63.14,1.71,1.71,0,0,1,.52.33,1.63,1.63,0,0,1,.34.51,1.58,1.58,0,0,1,.15.64A1.37,1.37,0,0,1,78.18,23.36ZM86,25.78a3.67,3.67,0,0,1,1.09.41h3v.94a.54.54,0,0,1-.13.37.75.75,0,0,1-.41.18l-.94.16c.06.19.1.37.15.58a3,3,0,0,1,.06.61,3.24,3.24,0,0,1-.31,1.41,3.06,3.06,0,0,1-.86,1.07,4.5,4.5,0,0,1-1.31.67,4.87,4.87,0,0,1-1.62.25,5.62,5.62,0,0,1-1.16-.1c-.33.2-.49.4-.49.65a.48.48,0,0,0,.28.47,2.73,2.73,0,0,0,.78.21,8.67,8.67,0,0,0,1.08.08c.41,0,.8,0,1.23.06a12.53,12.53,0,0,1,1.25.18,3.9,3.9,0,0,1,1.07.41,2.1,2.1,0,0,1,.77.74,2.24,2.24,0,0,1,.29,1.23,2.83,2.83,0,0,1-.35,1.35,3.56,3.56,0,0,1-1,1.16,4.73,4.73,0,0,1-1.6.82,6.8,6.8,0,0,1-2.15.31,7.65,7.65,0,0,1-2.08-.23,5.09,5.09,0,0,1-1.46-.61,2.57,2.57,0,0,1-.86-.88,2.13,2.13,0,0,1-.28-1A1.76,1.76,0,0,1,80.51,36a3.26,3.26,0,0,1,1.25-.78,1.7,1.7,0,0,1-.62-.57,1.68,1.68,0,0,1-.24-.94,1.36,1.36,0,0,1,.08-.49,1.9,1.9,0,0,1,.24-.5,4.69,4.69,0,0,1,.43-.47,4.42,4.42,0,0,1,.62-.39A3.42,3.42,0,0,1,81,30.71,3,3,0,0,1,80.55,29a3,3,0,0,1,1.19-2.48,4,4,0,0,1,1.31-.67,5.62,5.62,0,0,1,1.67-.25A6.31,6.31,0,0,1,86,25.78ZM87.3,36.3a1.25,1.25,0,0,0-.49-.31,3.48,3.48,0,0,0-.76-.16,7.83,7.83,0,0,0-.9-.09l-1,0c-.33,0-.65,0-1-.08a2.51,2.51,0,0,0-.7.55,1.19,1.19,0,0,0-.26.74,1.15,1.15,0,0,0,.14.51,1.11,1.11,0,0,0,.43.43,2.5,2.5,0,0,0,.8.27,6.29,6.29,0,0,0,1.17.1A5.41,5.41,0,0,0,86,38.1a3.7,3.7,0,0,0,.84-.29,1.27,1.27,0,0,0,.49-.45,1,1,0,0,0,.15-.57A.63.63,0,0,0,87.3,36.3Zm-1.76-5.61a1.66,1.66,0,0,0,.58-.35,1.42,1.42,0,0,0,.34-.55,1.78,1.78,0,0,0,.13-.7,1.71,1.71,0,0,0-.47-1.23,2,2,0,0,0-1.4-.45,2,2,0,0,0-1.41.45,1.65,1.65,0,0,0-.45,1.23,2,2,0,0,0,.1.7,1.69,1.69,0,0,0,.35.53,1.52,1.52,0,0,0,.6.37,2.55,2.55,0,0,0,.81.12A2.49,2.49,0,0,0,85.54,30.69Zm10.9,4.42v1.21H90.82V35.11a.59.59,0,0,1,.51-.64l.12,0,.31-.06.61-.1V27.84l-.61-.1c-.15,0-.25-.06-.31-.06l-.12,0a.58.58,0,0,1-.51-.63V25.82h4.07v8.47l.61.1c.14,0,.25.06.31.06l.12,0A.59.59,0,0,1,96.44,35.11ZM95.13,23.36a1.63,1.63,0,0,1-.34.51,1.45,1.45,0,0,1-.52.35,1.68,1.68,0,0,1-.63.12,1.73,1.73,0,0,1-.64-.12,1.42,1.42,0,0,1-.49-.35,1.63,1.63,0,0,1-.34-.51,1.36,1.36,0,0,1-.13-.61,1.56,1.56,0,0,1,.13-.64,1.63,1.63,0,0,1,.34-.51,1.69,1.69,0,0,1,.49-.33,1.75,1.75,0,0,1,.64-.14,1.83,1.83,0,0,1,1.15.47,1.63,1.63,0,0,1,.34.51,1.76,1.76,0,0,1,.15.64A1.52,1.52,0,0,1,95.13,23.36ZM98.69,35.7A3,3,0,0,1,98,33.57V27.72H96.89a.55.55,0,0,1-.35-.14.47.47,0,0,1-.16-.39v-1l1.7-.27L98.61,23a.43.43,0,0,1,.18-.3.65.65,0,0,1,.39-.12h1.31v3.31h2.76v1.8h-2.76v5.69a1.07,1.07,0,0,0,.25.76.82.82,0,0,0,.65.26,1.11,1.11,0,0,0,.39,0l.26-.12.23-.12a.24.24,0,0,1,.16,0,.32.32,0,0,1,.21,0,1.31,1.31,0,0,1,.14.16l.76,1.23a3.91,3.91,0,0,1-1.27.69,4.28,4.28,0,0,1-1.47.25A2.82,2.82,0,0,1,98.69,35.7ZM114,35.09V36.3H111.6a1.06,1.06,0,0,1-.57-.11.61.61,0,0,1-.31-.45L110.5,35a8.29,8.29,0,0,1-.78.63,4,4,0,0,1-.8.45,3.92,3.92,0,0,1-.86.27,5.34,5.34,0,0,1-1,.1,4,4,0,0,1-1.23-.18,2.58,2.58,0,0,1-1-.54,2.55,2.55,0,0,1-.64-.9,3.26,3.26,0,0,1-.22-1.23,2.51,2.51,0,0,1,.31-1.18,2.81,2.81,0,0,1,1-1.05,6.83,6.83,0,0,1,1.92-.77,12.21,12.21,0,0,1,3-.31v-.61a2.4,2.4,0,0,0-.45-1.58,1.57,1.57,0,0,0-1.29-.51,3,3,0,0,0-1,.14,4.84,4.84,0,0,0-.72.33c-.2.12-.39.2-.55.31a1,1,0,0,1-.55.14.82.82,0,0,1-.45-.12,1.13,1.13,0,0,1-.29-.33l-.47-.8a6.28,6.28,0,0,1,4.36-1.68,4.38,4.38,0,0,1,1.66.31,3.46,3.46,0,0,1,1.2.84,3.69,3.69,0,0,1,.78,1.29,5.27,5.27,0,0,1,.25,1.64v4.64l.55.1.22,0A.6.6,0,0,1,114,35.09Zm-3.75-3.26a9.4,9.4,0,0,0-1.84.15,5.29,5.29,0,0,0-1.21.37,1.37,1.37,0,0,0-.63.49,1.09,1.09,0,0,0-.19.63,1.1,1.1,0,0,0,.39,1,1.72,1.72,0,0,0,1,.29,3.92,3.92,0,0,0,.71-.06,2,2,0,0,0,.64-.23,4.84,4.84,0,0,0,.55-.34,6.22,6.22,0,0,0,.55-.5Zm10.14,3.28v1.21h-5.63V35.11a.6.6,0,0,1,.52-.64l.12,0,.31-.06.61-.1V23.14l-.61-.11c-.15,0-.25-.06-.31-.06l-.12,0a.59.59,0,0,1-.52-.63V21.11h4.08V34.29l.61.1.31.06.12,0A.59.59,0,0,1,120.41,35.11ZM137,32.78v3.54H126.31V35.11a.59.59,0,0,1,.51-.64l.12,0,.31-.06.61-.1V23.55l-.61-.11c-.14,0-.25-.06-.31-.06l-.12,0a.58.58,0,0,1-.51-.63V21.52h5.85v1.21a.58.58,0,0,1-.51.63l-.12,0-.31.06-.61.11V34h4.76a7,7,0,0,1,.09-.88.44.44,0,0,1,.47-.38ZM144.57,26a4,4,0,0,1,1.43.94,4.19,4.19,0,0,1,.95,1.5,5.62,5.62,0,0,1,.34,2,3.11,3.11,0,0,1,0,.49.78.78,0,0,1-.08.29.35.35,0,0,1-.18.16.66.66,0,0,1-.29,0h-6.49a3.62,3.62,0,0,0,.88,2.38,2.7,2.7,0,0,0,2,.76,3.13,3.13,0,0,0,1-.15,4.07,4.07,0,0,0,.78-.33c.22-.12.43-.2.59-.3a.89.89,0,0,1,.47-.15.54.54,0,0,1,.29.07.46.46,0,0,1,.18.16l.74.92a4.65,4.65,0,0,1-.94.84,5,5,0,0,1-1.09.53,7.8,7.8,0,0,1-1.16.27,7.59,7.59,0,0,1-1.15.08,5.37,5.37,0,0,1-2-.35A4.55,4.55,0,0,1,139.19,35a5.09,5.09,0,0,1-1.11-1.76,7,7,0,0,1-.38-2.44,6,6,0,0,1,.34-2,4.9,4.9,0,0,1,1-1.66,4.66,4.66,0,0,1,1.57-1.11,5.54,5.54,0,0,1,2.13-.41A5.35,5.35,0,0,1,144.57,26Zm-3.5,2.13a3.17,3.17,0,0,0-.8,1.76H145a3.41,3.41,0,0,0-.14-.92,2.16,2.16,0,0,0-.41-.76,1.82,1.82,0,0,0-.7-.51,2.48,2.48,0,0,0-1-.2A2.33,2.33,0,0,0,141.07,28.09Zm16.83,7V36.3h-2.42a1.06,1.06,0,0,1-.57-.11.61.61,0,0,1-.31-.45l-.22-.73a8.29,8.29,0,0,1-.78.63,4,4,0,0,1-.8.45,3.92,3.92,0,0,1-.86.27,5.34,5.34,0,0,1-1,.1,4,4,0,0,1-1.23-.18,2.58,2.58,0,0,1-1-.54,2.55,2.55,0,0,1-.64-.9,3.26,3.26,0,0,1-.22-1.23,2.61,2.61,0,0,1,.3-1.18,2.92,2.92,0,0,1,1.05-1.05,6.83,6.83,0,0,1,1.92-.77,12.21,12.21,0,0,1,3-.31v-.61a2.4,2.4,0,0,0-.45-1.58,1.57,1.57,0,0,0-1.29-.51,3,3,0,0,0-1,.14,4.84,4.84,0,0,0-.72.33c-.2.12-.39.2-.55.31a1,1,0,0,1-.55.14.82.82,0,0,1-.45-.12,1.13,1.13,0,0,1-.29-.33l-.47-.8a6.28,6.28,0,0,1,4.36-1.68,4.42,4.42,0,0,1,1.66.31,3.46,3.46,0,0,1,1.2.84,3.69,3.69,0,0,1,.78,1.29,5.27,5.27,0,0,1,.25,1.64v4.64l.55.1.22,0A.6.6,0,0,1,157.9,35.09Zm-3.75-3.26a9.4,9.4,0,0,0-1.84.15,5.29,5.29,0,0,0-1.21.37,1.37,1.37,0,0,0-.63.49,1.09,1.09,0,0,0-.19.63,1.1,1.1,0,0,0,.39,1,1.71,1.71,0,0,0,1,.29,4,4,0,0,0,.72-.06,2,2,0,0,0,.64-.23,4.84,4.84,0,0,0,.55-.34,6.22,6.22,0,0,0,.55-.5ZM166.9,26l-.33,1.9a.35.35,0,0,1-.12.25.53.53,0,0,1-.29.08,1.93,1.93,0,0,1-.4-.06,3.42,3.42,0,0,0-.72-.08,2.12,2.12,0,0,0-1.35.43,3.54,3.54,0,0,0-.94,1.29v4.5l1,.18a.59.59,0,0,1,.51.64v1.21h-5.61V35.11a.6.6,0,0,1,.52-.64l1-.18V27.84l-1-.18a.59.59,0,0,1-.52-.63V25.82h3a.76.76,0,0,1,.54.14.93.93,0,0,1,.2.49l.16,1.27a4.63,4.63,0,0,1,1.31-1.53,2.84,2.84,0,0,1,1.7-.56A2.22,2.22,0,0,1,166.9,26Zm13,9.13v1.21H175.8V29.64a2.36,2.36,0,0,0-.45-1.49,1.64,1.64,0,0,0-1.33-.53,2.55,2.55,0,0,0-1.23.31,4.44,4.44,0,0,0-1.09.79v5.57l.6.1.3.06.13,0a.6.6,0,0,1,.51.64v1.21h-5.61V35.11a.6.6,0,0,1,.51-.64.7.7,0,0,1,.13,0l.3-.06.6-.1V27.84l-.6-.1c-.14,0-.24-.06-.3-.06l-.13,0a.59.59,0,0,1-.51-.63V25.82h3.09a.62.62,0,0,1,.64.47l.18.82a4.63,4.63,0,0,1,.65-.6,4.47,4.47,0,0,1,.76-.45,3.8,3.8,0,0,1,.84-.3,5.16,5.16,0,0,1,1-.11,3.75,3.75,0,0,1,1.54.29,2.82,2.82,0,0,1,1.1.82,4.05,4.05,0,0,1,.68,1.27,5.14,5.14,0,0,1,.22,1.61v4.65l.62.1c.14,0,.24.06.3.06a.7.7,0,0,1,.13,0A.6.6,0,0,1,179.87,35.11Zm6.4,0v1.21h-5.63V35.11a.59.59,0,0,1,.51-.64l.12,0,.31-.06.62-.1V27.84l-.62-.1c-.14,0-.24-.06-.31-.06l-.12,0a.58.58,0,0,1-.51-.63V25.82h4.07v8.47l.62.1c.14,0,.24.06.3.06l.13,0A.6.6,0,0,1,186.27,35.11ZM185,23.36a1.65,1.65,0,0,1-.35.51,1.41,1.41,0,0,1-.51.35,1.73,1.73,0,0,1-.64.12,1.68,1.68,0,0,1-.63-.12,1.33,1.33,0,0,1-.49-.35,1.65,1.65,0,0,1-.35-.51,1.51,1.51,0,0,1-.12-.61,1.73,1.73,0,0,1,.12-.64,1.65,1.65,0,0,1,.35-.51,1.56,1.56,0,0,1,.49-.33,1.7,1.7,0,0,1,.63-.14,1.75,1.75,0,0,1,.64.14,1.56,1.56,0,0,1,.86.84,1.75,1.75,0,0,1,.14.64A1.52,1.52,0,0,1,185,23.36Zm14.3,11.75v1.21h-4.07V29.64a2.3,2.3,0,0,0-.45-1.49,1.64,1.64,0,0,0-1.33-.53,2.55,2.55,0,0,0-1.23.31,4.39,4.39,0,0,0-1.08.79v5.57l.59.1.31.06.12,0a.59.59,0,0,1,.51.64v1.21H187V35.11a.59.59,0,0,1,.51-.64l.12,0,.31-.06.59-.1V27.84l-.59-.1c-.15,0-.25-.06-.31-.06a.35.35,0,0,0-.12,0A.58.58,0,0,1,187,27V25.82h3.09a.61.61,0,0,1,.63.47l.18.82a4.7,4.7,0,0,1,.66-.6,3.81,3.81,0,0,1,.76-.45,3.63,3.63,0,0,1,.84-.3,5,5,0,0,1,1-.11,3.73,3.73,0,0,1,1.53.29,2.93,2.93,0,0,1,1.11.82,4,4,0,0,1,.67,1.27,4.86,4.86,0,0,1,.23,1.61v4.65l.61.1c.15,0,.25.06.31.06l.12,0A.59.59,0,0,1,199.26,35.11Zm6.53-9.33a3.67,3.67,0,0,1,1.09.41h3v.94a.49.49,0,0,1-.13.37.75.75,0,0,1-.41.18l-.94.16a4.91,4.91,0,0,1,.15.58,3,3,0,0,1,.06.61,3.11,3.11,0,0,1-.31,1.41,3.06,3.06,0,0,1-.86,1.07,4.5,4.5,0,0,1-1.31.67,4.87,4.87,0,0,1-1.62.25,5.62,5.62,0,0,1-1.16-.1c-.33.2-.49.4-.49.65a.48.48,0,0,0,.28.47,2.73,2.73,0,0,0,.78.21,8.69,8.69,0,0,0,1.09.08c.41,0,.79,0,1.22.06a12.53,12.53,0,0,1,1.25.18,3.9,3.9,0,0,1,1.07.41,2.1,2.1,0,0,1,.77.74,2.24,2.24,0,0,1,.29,1.23,2.83,2.83,0,0,1-.35,1.35,3.56,3.56,0,0,1-1,1.16,4.73,4.73,0,0,1-1.6.82,6.78,6.78,0,0,1-2.14.31,7.68,7.68,0,0,1-2.09-.23,4.9,4.9,0,0,1-1.45-.61,2.4,2.4,0,0,1-.86-.88,2,2,0,0,1-.29-1,1.76,1.76,0,0,1,.45-1.25,3.34,3.34,0,0,1,1.25-.78,1.7,1.7,0,0,1-.62-.57,1.68,1.68,0,0,1-.24-.94,1.36,1.36,0,0,1,.08-.49,1.67,1.67,0,0,1,.25-.5,3.1,3.1,0,0,1,.43-.47,3.78,3.78,0,0,1,.61-.39,3.42,3.42,0,0,1-1.27-1.14,3,3,0,0,1-.45-1.68,3,3,0,0,1,1.19-2.48,4.26,4.26,0,0,1,1.31-.67,5.62,5.62,0,0,1,1.67-.25A6.23,6.23,0,0,1,205.79,25.78ZM207.1,36.3a1.25,1.25,0,0,0-.49-.31,3.51,3.51,0,0,0-.75-.16,8.25,8.25,0,0,0-.91-.09l-1,0c-.33,0-.65,0-1-.08a2.51,2.51,0,0,0-.7.55,1.19,1.19,0,0,0-.26.74,1.15,1.15,0,0,0,.14.51,1.11,1.11,0,0,0,.43.43,2.5,2.5,0,0,0,.8.27,6.38,6.38,0,0,0,1.17.1,5.41,5.41,0,0,0,1.22-.12,3.7,3.7,0,0,0,.84-.29,1.27,1.27,0,0,0,.49-.45,1,1,0,0,0,.15-.57A.63.63,0,0,0,207.1,36.3Zm-1.76-5.61a1.66,1.66,0,0,0,.58-.35,1.42,1.42,0,0,0,.34-.55,1.78,1.78,0,0,0,.13-.7,1.71,1.71,0,0,0-.47-1.23,2,2,0,0,0-1.4-.45,2,2,0,0,0-1.41.45,1.69,1.69,0,0,0-.45,1.23,1.78,1.78,0,0,0,.11.7,1.5,1.5,0,0,0,.34.53,1.52,1.52,0,0,0,.6.37,2.55,2.55,0,0,0,.81.12A2.49,2.49,0,0,0,205.34,30.69Z"/><g id="MDL_icon-full_color" data-name="MDL icon-full color"><path id="blue_squares" data-name="blue squares" class="cls-1" d="M29.71,20.06h-2a.38.38,0,0,1-.38-.38v-2a.38.38,0,0,1,.38-.38h2a.38.38,0,0,1,.38.38v2A.38.38,0,0,1,29.71,20.06Zm6.76-4.39v-2a.38.38,0,0,0-.38-.38h-2a.38.38,0,0,0-.38.38v2a.38.38,0,0,0,.38.38h2A.38.38,0,0,0,36.47,15.67ZM23.47,29V27.85a.38.38,0,0,0-.38-.38H21.9a.38.38,0,0,0-.39.38V29a.38.38,0,0,0,.39.38h1.19A.38.38,0,0,0,23.47,29ZM30.7,4.44V.52a.38.38,0,0,0-.38-.38H26.4A.38.38,0,0,0,26,.52V4.44a.38.38,0,0,0,.38.38h3.92A.38.38,0,0,0,30.7,4.44ZM19.16,25.91V22.4a.38.38,0,0,0-.39-.38h-3.5a.38.38,0,0,0-.39.38v3.51a.38.38,0,0,0,.39.38h3.5A.38.38,0,0,0,19.16,25.91Z"/><path id="yellow_squares" data-name="yellow squares" class="cls-2" d="M20,2.76H18a.39.39,0,0,1-.38-.39v-2A.38.38,0,0,1,18,0h2a.38.38,0,0,1,.38.38v2A.39.39,0,0,1,20,2.76ZM31.48,26.68V23.79a.39.39,0,0,0-.38-.39H28.2a.39.39,0,0,0-.38.39v2.89a.39.39,0,0,0,.38.39h2.9A.39.39,0,0,0,31.48,26.68ZM19,10.52V5.38A.39.39,0,0,0,18.58,5H13.43a.39.39,0,0,0-.38.39v5.14a.38.38,0,0,0,.38.39h5.15A.38.38,0,0,0,19,10.52Zm3.22,6.57V12.7a.38.38,0,0,0-.38-.39H17.4a.38.38,0,0,0-.38.39v4.39a.38.38,0,0,0,.38.38h4.4A.38.38,0,0,0,22.18,17.09Zm8-2V11.59a.39.39,0,0,0-.39-.38H26.3a.38.38,0,0,0-.39.38v3.52a.38.38,0,0,0,.39.38h3.51A.39.39,0,0,0,30.2,15.11Z"/><path id="green_squares" data-name="green squares" class="cls-3" d="M25,9.53H22.57a.4.4,0,0,1-.39-.39V6.72a.39.39,0,0,1,.39-.38H25a.38.38,0,0,1,.38.38V9.14A.39.39,0,0,1,25,9.53Zm10.94.31V7.42A.39.39,0,0,0,35.54,7H33.12a.39.39,0,0,0-.38.39V9.84a.38.38,0,0,0,.38.38h2.42A.38.38,0,0,0,35.93,9.84ZM15.51,17.09v-2a.39.39,0,0,0-.38-.39h-2a.4.4,0,0,0-.39.39v2a.39.39,0,0,0,.39.38h2A.38.38,0,0,0,15.51,17.09Zm11.13,7V20.69a.4.4,0,0,0-.39-.39H22.81a.4.4,0,0,0-.39.39v3.44a.4.4,0,0,0,.39.39h3.44A.4.4,0,0,0,26.64,24.13Zm10.18-1.59V19.23a.39.39,0,0,0-.38-.39H33.12a.39.39,0,0,0-.38.39v3.31a.38.38,0,0,0,.38.38h3.32A.38.38,0,0,0,36.82,22.54Z"/><path id="book_cover" data-name="book cover" d="M1.42,36A1.38,1.38,0,0,1,0,34.49V9.94c0-.92,3.14-.21,3.15,1V31a1.34,1.34,0,0,0,1.09,1.52c3.43.92,12.07,2.52,15.06,5.86C12.3,36.3,1.7,36,1.42,36Zm21.36,2.4C19.16,30.79,8.23,30.61,8.23,25.94V8.42C8.22,7.3,5,6.64,5.08,7.5V29.05c0,1.06.29,1.84,1.59,2.07C9.29,31.57,14.05,32.26,22.78,38.38ZM48,36a1.39,1.39,0,0,0,1.43-1.49V9.94c0-.92-3.14-.21-3.15,1V31a1.35,1.35,0,0,1-1.09,1.52c-3.43.92-12.07,2.52-15.07,5.86C37.17,36.3,47.77,36,48,36ZM42.8,31.12c1.29-.23,1.59-1,1.59-2.07V7.5c0-.86-3.14-.2-3.15.92V25.94c0,4.67-10.93,4.85-14.56,12.44C35.42,32.26,40.17,31.57,42.8,31.12Z"/></g></g></svg>